<?xml version="1.0" encoding="utf-8"?>
<!-- Generator: Adobe Illustrator 19.1.0, SVG Export Plug-In . SVG Version: 6.00 Build 0)  -->
<svg version="1.1" id="Layer_1" xmlns="http://www.w3.org/2000/svg" xmlns:xlink="http://www.w3.org/1999/xlink" x="0px" y="0px"
	 viewBox="0 0 131.4 21.6" style="enable-background:new 0 0 131.4 21.6;" xml:space="preserve">
<g id="logo_1_">
	<polygon style="fill:#C41B78;" points="0,21.3 0,0.7 3,0.7 3,18.7 11.3,18.7 11.3,21.3 0,21.3 	"/>
	<path style="fill:#C41B78;" d="M16.4,21.3V8.8h-3.8V6.6h6.6v14.7H16.4L16.4,21.3z M17.6,4.1c-1.2,0-2.1-0.9-2.1-2.1
		c0-1.1,0.9-2,2.1-2c1.2,0,2.1,0.9,2.1,2C19.7,3.2,18.8,4.1,17.6,4.1L17.6,4.1z"/>
	<path style="fill:#C41B78;" d="M33.7,21.3V10.9c0-1.4-0.7-2.2-1.9-2.2c-1.1,0-2.9,1.2-3.6,3v9.6h-2.9V6.6h2.5l0.1,2.3H28
		c0,0,0.2-0.4,0.5-0.8c1-1.3,2.3-1.9,3.8-1.9c2.7,0,4.3,1.7,4.3,4.5v10.5H33.7L33.7,21.3z"/>
	<path style="fill:#C41B78;" d="M50.4,21.3l-5.3-6.1c-0.1-0.2-0.4-0.5-0.4-0.5h-0.1v6.6h-2.8V0.3h2.8v12.1l0.1,0
		c0,0,0.3-0.4,0.4-0.6l4.7-5.3H53l-6.1,6.7l7.1,8H50.4L50.4,21.3z"/>
	<polygon style="fill:#C41B78;" points="58.1,21.3 58.1,2.6 54.3,2.6 54.3,0.3 60.9,0.3 60.9,21.3 58.1,21.3 	"/>
	<path style="fill:#C41B78;" d="M73.9,21.3l-0.2-1c0-0.3-0.1-0.8-0.1-0.8h0c-0.7,1.3-2.1,2.1-3.9,2.1c-1.1,0-2.1-0.3-2.7-0.8
		c-1.3-0.9-1.8-2.2-1.8-3.7c0-3,2.2-4.9,5.1-4.9c0.9,0,2.1,0.2,2.9,0.3l0.1,0v-2c0-1.6-1.3-2-2.6-2c-1.2,0-2.7,0.3-4,1.1l-0.1-2.3
		c1.3-0.8,3-1.2,4.7-1.2c2.9,0,4.8,1.9,4.8,4.9v10.2H73.9L73.9,21.3z M73.4,14.7c-0.6-0.2-1.6-0.3-2.4-0.3c-1.8,0-3.1,0.7-3.1,2.6
		c0,1.4,0.8,2.2,2.2,2.2c1.6,0,2.4-0.9,3.3-2.1l0-0.1V14.7L73.4,14.7z"/>
	<polygon style="fill:#C41B78;" points="86,8.8 86,21.3 83.2,21.3 83.2,8.8 79.5,8.8 79.5,6.6 83.2,6.6 83.2,2.3 86,2.3 86,6.6 
		90.1,6.6 90.1,8.8 86,8.8 	"/>
	<path style="fill:#C41B78;" d="M104.1,14.4h-8.8v0.2c0,2.9,1.2,4.5,4.2,4.5c1.6,0,3-0.5,4.2-1v2.3c-1.4,0.6-2.7,1.1-4.6,1.1
		c-4.8,0-6.6-3.2-6.6-7.6c0-3.6,1.6-7.7,6.2-7.7c4.9,0,5.5,4.7,5.5,6.3C104.2,13.1,104.1,14,104.1,14.4L104.1,14.4z M98.5,8.5
		c-1.6,0-3,1.3-3.2,3.9h6.1c0,0,0-0.2,0-0.2C101.4,9.9,100.2,8.5,98.5,8.5L98.5,8.5z"/>
	<path style="fill:#C41B78;" d="M118.9,11.3h-2.6V11c0-1.6-0.6-2.4-1.7-2.4c-1.1,0-2.4,1.4-3,3.2v9.5h-2.8V6.6h2.4l0.1,2.2h0.1
		c0,0,0.3-0.4,0.4-0.7c1-1.4,2.1-1.8,3.3-1.8c2.4,0,4,1.7,4,4C118.9,10.6,118.9,10.9,118.9,11.3L118.9,11.3z"/>
	<path style="fill:#C41B78;" d="M126.2,21.5c-1.7,0-3.3-0.4-4.7-1.5l0.1-2.5c1.4,1,2.7,1.7,4.6,1.7c1.4,0,2.6-0.6,2.6-2
		c0-1.2-0.8-1.7-2.7-2.4l-0.5-0.2c-1.8-0.7-3.8-1.7-3.8-4.3c0-2.6,2.3-4.1,4.7-4.1c1.4,0,2.8,0.3,4.1,1.2l-0.1,2.4
		c-1.3-0.8-2.6-1.3-4.1-1.3c-1.1,0-2,0.3-2,1.6c0,1.2,1,1.7,2.4,2.2l0.5,0.2c2,0.8,4.2,1.7,4.2,4.7
		C131.4,20.3,128.9,21.5,126.2,21.5L126.2,21.5z"/>
</g>
</svg>
