<?xml version="1.0" encoding="utf-8"?>
<!-- Generator: Adobe Illustrator 19.1.0, SVG Export Plug-In . SVG Version: 6.00 Build 0)  -->
<svg version="1.1" id="Layer_1" xmlns="http://www.w3.org/2000/svg" xmlns:xlink="http://www.w3.org/1999/xlink" x="10px" y="5px"
	 viewBox="0 0 593.6 159.7" style="enable-background:new 0 0 593.6 159.7;" xml:space="preserve">
<g id="_x22_UNLEASH..._x22__TITLE">
	<path style="fill:#FFFFFF;" d="M56.4,25V0.7h12.7v23.9c0,4,2.6,7.1,7.8,7.1c5.1,0,7.7-3.2,7.7-7.1V0.7h12.7V25
		c0,10.3-6.4,17.8-20.4,17.8S56.4,35.3,56.4,25z"/>
	<path style="fill:#FFFFFF;" d="M131.7,42l-15.3-21v21H104V0.7h12.9l14.4,19.6V0.7h12.5V42H131.7z"/>
	<path style="fill:#FFFFFF;" d="M150.5,42V0.7H163v30.4h15.7V42H150.5z"/>
	<path style="fill:#FFFFFF;" d="M183.7,42V0.7h31.4v10.9h-18.8v4.1h18.4v10.9h-18.4v4.5h18.8V42H183.7z"/>
	<path style="fill:#FFFFFF;" d="M248.2,42l-1.5-4.8h-14.9l-1.5,4.8h-14.2l15.3-41.4h15.7L262.4,42H248.2z M239.3,13l-4.1,13.3h8.2
		L239.3,13z"/>
	<path style="fill:#FFFFFF;" d="M261.5,36.2l6.5-9.3c3.1,3,7.8,5.3,13.3,5.3c2.4,0,4.6-0.6,4.6-2.2c0-4-23.1,0.1-23.1-16.2
		c0-7,5.8-13.7,17.2-13.7c6.8,0,12.8,1.9,17.5,5.8l-6.7,8.9c-3.6-2.7-8.2-4.1-12.2-4.1c-2.5,0-3.2,0.8-3.2,1.9c0,3.9,23,0.6,23,15.9
		c0,9.1-6.8,14.4-17.9,14.4C271.9,42.8,265.9,40.2,261.5,36.2z"/>
	<path style="fill:#FFFFFF;" d="M330,42V26.2h-14.8V42h-12.5V0.7h12.5v14.6H330V0.7h12.5V42H330z"/>
	<path style="fill:#FFFFFF;" d="M376.1,42V25.6L360.6,0.7h14.1l7.7,13.9l7.6-13.9H404l-15.4,24.9V42H376.1z"/>
	<path style="fill:#FFFFFF;" d="M401.5,21.4c0-12.7,9.9-21.4,22.6-21.4c12.8,0,22.6,8.7,22.6,21.4c0,12.7-9.9,21.4-22.6,21.4
		C411.3,42.8,401.5,34.1,401.5,21.4z M434,21.4c0-5.8-3.9-10.4-9.9-10.4c-6,0-9.9,4.6-9.9,10.4c0,5.8,3.9,10.4,9.9,10.4
		C430.1,31.7,434,27.2,434,21.4z"/>
	<path style="fill:#FFFFFF;" d="M451.2,25V0.7h12.7v23.9c0,4,2.6,7.1,7.8,7.1c5.1,0,7.7-3.2,7.7-7.1V0.7h12.7V25
		c0,10.3-6.4,17.8-20.4,17.8S451.2,35.3,451.2,25z"/>
	<path style="fill:#FFFFFF;" d="M521.5,42l-5.7-13h-4.5v13h-12.5V0.7h22.1c9.7,0,14.9,6.4,14.9,14.2c0,7.1-4.2,10.9-7.4,12.5
		l7.5,14.6H521.5z M523,14.8c0-2.2-2-3.2-4.1-3.2h-7.6v6.5h7.6C521,18.1,523,17.1,523,14.8z"/>
	<path style="fill:#FFFFFF;" d="M0,157.9V59.2h52.7c23.1,0,35.5,15.4,35.5,33.9c0,18.4-12.4,33.7-35.5,33.7H29.9v31.1H0z M57.9,93.1
		c0-5.3-4-7.8-9-7.8H29.9v15.5h18.9C53.9,100.8,57.9,98.3,57.9,93.1z"/>
	<path style="fill:#FFFFFF;" d="M98,157.9V59.2h74.9v26h-45V95h44v26h-44v10.8h45v26H98z"/>
	<path style="fill:#FFFFFF;" d="M180.9,108.6c0-30.3,23.5-51.1,54-51.1c30.5,0,54,20.7,54,51.1s-23.5,51.1-54,51.1
		C204.4,159.7,180.9,139,180.9,108.6z M258.6,108.6c0-13.8-9.3-24.7-23.7-24.7s-23.7,11-23.7,24.7c0,13.8,9.3,24.7,23.7,24.7
		S258.6,122.4,258.6,108.6z"/>
	<path style="fill:#FFFFFF;" d="M299.5,157.9V59.2h52.7c23.1,0,35.5,15.4,35.5,33.9c0,18.4-12.4,33.7-35.5,33.7h-22.8v31.1H299.5z
		 M357.4,93.1c0-5.3-4-7.8-9-7.8h-18.9v15.5h18.9C353.4,100.8,357.4,98.3,357.4,93.1z"/>
	<path style="fill:#FFFFFF;" d="M397.5,157.9V59.2h29.9v72.7h37.4v26H397.5z"/>
	<path style="fill:#FFFFFF;" d="M476.9,157.9V59.2h74.9v26h-45V95h44v26h-44v10.8h45v26H476.9z"/>
	<path style="fill:#FFFFFF;" d="M565.9,121.2l-4-62h31.7l-3.7,62H565.9z M562.2,143.9c0-8.6,7.1-15.8,15.7-15.8s15.7,7.3,15.7,15.8
		c0,8.4-7.1,15.7-15.7,15.7S562.2,152.3,562.2,143.9z"/>
</g>
</svg>
