<?xml version="1.0" encoding="utf-8"?>
<!-- Generator: Adobe Illustrator 19.1.0, SVG Export Plug-In . SVG Version: 6.00 Build 0)  -->
<svg version="1.1" id="Layer_1" xmlns="http://www.w3.org/2000/svg" xmlns:xlink="http://www.w3.org/1999/xlink" x="0px" y="0px"
	 viewBox="0 0 221.2 175.4" style="enable-background:new 0 0 221.2 175.4;" xml:space="preserve">
<g>
	<g id="cloud">
		<path id="XMLID_629_" style="fill:#FFFFFF;" d="M68.5,90.2l-2,0v3.5h2c1.4,0,1.9-0.4,1.9-1.8C70.4,90.5,69.9,90.2,68.5,90.2z"/>
		<path id="XMLID_628_" style="fill:#FFFFFF;" d="M135.2,68.4c0-2-0.9-2.7-3.7-2.7c-3.2,0-4.3,0.9-4.5,4.9h6.1
			C135,70.6,135.2,69.6,135.2,68.4z"/>
		<path id="XMLID_627_" style="fill:#FFFFFF;" d="M79.2,62c0-3.4-1-4.2-4.5-4.2l-4.8,0v8.5h4.8C78.2,66.2,79.2,65.3,79.2,62z"/>
		<path id="XMLID_626_" style="fill:#FFFFFF;" d="M89.8,90.2l-2.1,0v8.4c0.6,0,1.3,0,2.1,0c1.9,0,2.4-1,2.4-4.2
			C92.2,91.2,91.7,90.2,89.8,90.2z"/>
		<path id="XMLID_625_" style="fill:#FFFFFF;" d="M153.2,90.2l-2,0v3.5h2c1.4,0,1.9-0.4,1.9-1.8C155,90.5,154.6,90.2,153.2,90.2z"/>
		<path id="XMLID_603_" style="fill:#FFFFFF;" d="M192.6,56.8C189,33.6,166.4,3,128.7,0.2C106-1.5,85.3,7.3,72.2,21.8
			c-2.8-0.6-5.7-0.9-8.7-0.9c-21.7,0-39.2,17-39.4,38.1C9.6,67.7,0,83.4,0,101.2C0,118.1,8.6,133,21.7,142
			c21.3-14.3,39.7-32.4,75.4-32.4c26.5,0,63.4,14,80.6,14c15.7,1.1,37.9-5.8,41.1-30.3C220.2,75.8,208.3,60.1,192.6,56.8z
			 M47.8,99.9c-0.1,0.5-0.5,0.8-1,0.8h-2.6c-0.5,0-0.9-0.3-1-0.8l-1.4-8.1c-0.1-0.5-0.2-1-0.2-1.6h-0.3c-0.1,0.5-0.1,1.1-0.2,1.6
			l-1.3,8.1c-0.1,0.5-0.5,0.8-1,0.8h-2.6c-0.5,0-0.9-0.3-1-0.8l-2-11.7H36l1.2,8.6c0.1,0.5,0.1,1.1,0.2,1.8h0.4
			c0.1-0.6,0.2-1.2,0.3-1.8l1.3-7.8c0.1-0.5,0.4-0.8,1-0.8h2.4c0.5,0,0.9,0.3,1,0.8l1.3,7.8c0.1,0.6,0.2,1.2,0.3,1.8h0.4
			c0-0.6,0.1-1.2,0.2-1.8l1.2-8.7h2.8L47.8,99.9z M40,69.7v13.4h-6.6V53H40v11.5h10.6V53h6.6v30.1h-6.6V69.7H40z M56.4,100.9
			c-3.9,0-5.3-1.5-5.3-6.4c0-5,1.4-6.4,5.3-6.4c3.9,0,5.3,1.5,5.3,6.4C61.7,99.4,60.3,100.9,56.4,100.9z M70.7,100.7l-0.9-3.8
			c-0.2-0.8-0.6-1-1.3-1l-1.9,0v4.9h-2.7V88.2c1.5-0.1,2.5-0.2,4.7-0.2c3.2,0,4.6,0.8,4.6,3.7c0,1.7-0.6,2.9-2.4,3.1v0.1
			c0.6,0.1,1.5,0.6,1.8,1.9l1.1,3.9H70.7z M69.9,71.3v11.8h-6.5V53c3.6-0.3,6.1-0.4,11.5-0.4c7.8,0,11.1,2,11.1,8.9
			c0,4.2-1.5,6.9-5.7,7.5v0.2c1.5,0.3,3.6,1.4,4.3,4.5l2.6,9.4h-7l-2.3-9.2c-0.6-1.9-1.4-2.5-3.2-2.5L69.9,71.3z M78.2,100.7
			c-2,0-2.8-1.1-2.8-2.6v-9.8h2.7v9.3c0,0.6,0.3,0.9,1,0.9h4.3l0.1,2.1C81.8,100.7,80,100.7,78.2,100.7z M89.8,100.8
			c-1.9,0-3.4-0.1-4.8-0.2V88.2c1.4-0.1,2.9-0.2,4.8-0.2c3.9,0,5.3,1.5,5.3,6.4C95.1,99.4,93.7,100.8,89.8,100.8z M85.3,24.5
			c14.3-18.2,45.3-19.4,64-11.6c17.3,5.8,25.7,20.3,27.6,25.4C166,21.8,146.3,15,136.3,13.3C116.2,9.8,98,15.4,85.3,24.5z M97.7,53
			h24.6v5.4h-9v24.7h-6.7V58.4h-9V53z M106,100.9c-3.8,0-5.2-1.7-5.2-6.4c0-4.7,1.4-6.4,5.2-6.4c1.7,0,2.6,0.1,3.7,0.4l-0.2,2.1
			c-1.2-0.1-1.9-0.1-3.5-0.1c-1.8,0-2.3,0.9-2.3,4.1c0,3.1,0.5,4.1,2.3,4.1c1.7,0,2.6,0,3.7-0.2l0.2,2
			C108.8,100.7,107.7,100.9,106,100.9z M116.4,100.9c-3.9,0-5.3-1.5-5.3-6.4c0-5,1.4-6.4,5.3-6.4c3.9,0,5.3,1.5,5.3,6.4
			C121.8,99.4,120.4,100.9,116.4,100.9z M120.4,72.4c0-8.5,3.1-11.4,10.9-11.4c7.3,0,10.2,2.6,10.2,7.5c0,3.9-1.9,6-6.5,6h-7.8
			c0.4,3.2,1.8,4,5.1,4c2,0,5.1-0.2,8-0.5l0.6,4c-2.5,1.2-6.3,1.6-9.4,1.6C123.5,83.6,120.4,80.3,120.4,72.4z M134.3,99.7
			c0,0.6-0.3,1-1,1h-1.7c-0.6,0-0.8-0.3-1.1-0.8l-3.3-6.6c-0.3-0.5-0.6-1.3-0.8-1.9h-0.2c0.1,0.6,0.1,1.3,0.1,2v7.4h-2.6V89.2
			c0-0.6,0.3-1,1-1h1.7c0.6,0,0.8,0.3,1.1,0.8l3.1,6.4c0.3,0.5,0.6,1.3,0.9,2h0.2c-0.1-0.7-0.1-1.4-0.1-2.1v-7.1h2.6V99.7z
			 M146.3,100.7h-2l-0.3-1.2c-0.6,0.7-1.9,1.5-3.6,1.5c-2.8,0-4-1.9-4-6.5c0-4.9,1.5-6.4,5.6-6.4c1.5,0,2.6,0.1,3.8,0.4l-0.2,2
			c-1.2-0.1-2.4-0.1-3.5-0.1c-2.1,0-2.8,0.5-2.8,4.1c0,3.1,0.5,4.1,2,4.1c0.9,0,1.6-0.3,2.2-0.6v-4.4h2.6V100.7z M144.8,72.3
			c0-8.3,2.9-11.3,10.8-11.3c2.2,0,5.6,0.3,7.9,1.3l-0.7,4c-2.4,0-4.5-0.1-6.1-0.1c-3.9,0-5.2,1.3-5.2,6.1c0,4.8,1.3,6.1,5.2,6.1
			c1.4,0,4.1,0,6.6-0.4l0.6,4.2c-2.3,1-5.4,1.4-8.3,1.4C147.7,83.6,144.8,80.6,144.8,72.3z M155.4,100.7l-0.9-3.8
			c-0.2-0.8-0.6-1-1.3-1l-1.9,0v4.9h-2.7V88.2c1.5-0.1,2.5-0.2,4.7-0.2c3.2,0,4.6,0.8,4.6,3.7c0,1.7-0.6,2.9-2.4,3.1v0.1
			c0.6,0.1,1.5,0.6,1.8,1.9l1.1,3.9H155.4z M167.7,93.2v2h-5v2.4c0,0.7,0.3,0.9,0.8,0.9h4.8l0.1,2c-1.7,0.2-3.8,0.2-5.8,0.2
			c-1.7,0-2.7-1-2.7-2.5v-7.5c0-1.5,1.1-2.5,2.7-2.5c1.9,0,4.1,0,5.8,0.2l-0.1,2h-4.8c-0.6,0-0.8,0.3-0.8,0.9v1.9H167.7z
			 M174.4,100.9c-0.8,0-2.4-0.1-4.3-0.5l0.2-2c2.3,0.1,3.3,0.1,4.1,0.1c1.4,0,1.8-0.2,1.8-1.2c0-0.9-0.3-1.1-1.2-1.4l-2.5-0.9
			c-1.9-0.7-2.6-1.8-2.6-3.6c0-2.8,1.3-3.4,4.5-3.4c1.2,0,2.7,0.1,4.1,0.5l-0.2,1.9c-1,0-2.6-0.1-3.9-0.1c-1.3,0-1.8,0.1-1.8,1.1
			c0,0.9,0.4,1.1,1.3,1.4l2.4,0.8c2,0.7,2.6,1.8,2.6,3.7C179,100.1,177.8,100.9,174.4,100.9z M174.3,68.4v14.7h-6.5V52.6h6.5V60
			c0,1.6-0.2,3.2-0.4,4.5c2.9-2.3,5.9-3.5,8.8-3.5c3.9,0,6,2.1,6,6v16.1h-6.4V69c0-2-0.5-2.5-2.1-2.5
			C178.5,66.5,176.8,67.1,174.3,68.4z M184.9,100.9c-0.8,0-2.4-0.1-4.3-0.5l0.2-2c2.3,0.1,3.3,0.1,4.1,0.1c1.4,0,1.8-0.2,1.8-1.2
			c0-0.9-0.3-1.1-1.2-1.4l-2.5-0.9c-1.9-0.7-2.6-1.8-2.6-3.6c0-2.8,1.3-3.4,4.5-3.4c1.2,0,2.7,0.1,4.1,0.5l-0.2,1.9
			c-1,0-2.6-0.1-3.9-0.1c-1.3,0-1.8,0.1-1.8,1.1c0,0.9,0.4,1.1,1.3,1.4l2.4,0.8c2,0.7,2.6,1.8,2.6,3.7
			C189.5,100.1,188.2,100.9,184.9,100.9z"/>
		<path id="XMLID_596_" style="fill:#FFFFFF;" d="M56.4,90.2c-1.9,0-2.4,0.9-2.4,4.2c0,3.3,0.6,4.2,2.4,4.2c1.9,0,2.4-0.9,2.4-4.2
			C58.8,91.1,58.3,90.2,56.4,90.2z"/>
		<path id="XMLID_595_" style="fill:#FFFFFF;" d="M116.4,90.2c-1.9,0-2.4,0.9-2.4,4.2c0,3.3,0.6,4.2,2.4,4.2s2.4-0.9,2.4-4.2
			C118.9,91.1,118.3,90.2,116.4,90.2z"/>
	</g>
	<path id="wave" style="fill:#FFFFFF;" d="M220.7,93.4c0.5,25.7-13.6,40.8-41,40.8c-27.7,0-46.2-20-89.6-20
		c-22.5,0-36.6,5.3-51,14.7c-5.2,3.6-12,9.5-17.4,13.2c0.1,0.1,0.2,0.1,0.2,0.2c16.1-11.6,31.7-23.4,57.5-23.4
		c41.8,0,67.3,30.8,94.4,30.8c26.1-0.9,38.7-15.1,43.9-29C222.6,107.5,221,94.8,220.7,93.4z"/>
	<g id="spring">
		<g id="XMLID_563_">
			<path id="XMLID_593_" style="fill:#FFFFFF;" d="M52.9,148.9c-3.5,1.3-4.9-1.5-5.1-2.1c0.4,0.3,0.8,0.2,1,0.2
				c0.6-0.2,0.7-0.7,0.5-1c-0.2-0.4-0.7-0.9-1.9-0.5c-0.8,0.3-1.6,1.3-1.1,2.6c0.4,1.2,2,2.1,3.6,2.1c3.9,0.2,8.5-0.4,10.4,4.7
				c1.8,4.8-1.3,9.6-6,11.3c-4.2,1.5-8.9,0.2-10.1-3.2c-0.9-2.5,0.4-4.4,2.6-5.2c1.7-0.6,3.7-0.5,4.9,0.6c-0.2,0-0.4,0.1-0.6,0.1
				c-0.6,0.2-0.8,0.7-0.6,1.3c0.3,0.7,1.1,1,1.9,0.7c0.8-0.3,1.2-1.3,0.9-2c-0.3-0.7-1-1.3-2.1-1.6c-5.9-1.2-9.2-0.1-11-5.1
				c-1.4-4,0.5-8.3,5.9-10.2c5.4-2,8.4,0.2,9.3,2.7C56.2,146.2,55.1,148.1,52.9,148.9z"/>
			<path id="XMLID_586_" style="fill:#FFFFFF;" d="M63,142.3c1.2-0.2,2.6-0.5,4-1c-0.2,0.5-0.2,1.4-0.1,2.6c0.5-2.1,1.8-3.5,4-3.9
				c1.5-0.3,5.8-0.9,7.4,8.4c1.4,7.8-1.8,11.1-4.5,11.6c-2.1,0.4-3.9-1.1-4.9-3.6c0.6,3,2.1,9.2,2.9,10.3c-1.8,0-3.3,0.2-4.5,0.4
				c-1.6,0.3-2.5,0.6-2.5,0.6c0-2.2-0.5-7.3-1.4-12.5c-0.9-4.8-2-9.6-3.4-12.4C60,142.7,61.3,142.6,63,142.3z M68.6,152.1
				c0.2,1.2,0.6,2.5,2.1,2.3c1.6-0.3,0.9-4.4,0.7-5.6c-0.2-1.2-0.8-3.7-2.2-3.5c-1.6,0.3-1.3,2.8-1.1,4.2
				C68.5,151.7,68.6,151.9,68.6,152.1z"/>
			<path id="XMLID_583_" style="fill:#FFFFFF;" d="M86.7,147.2c0.1,3.7,0.5,7.7,1.4,10.9c0,0-0.8-0.1-2.3-0.1
				c-1.3,0-3.2,0.2-5.3,0.5c0.5-2.5,0.7-7.4,0.6-11.8c-0.1-3.3-0.3-6.4-0.7-8.1c1.8,0.3,3.2,0.3,4.4,0.3c1.5,0,2.4-0.2,2.4-0.2
				c-0.1,0.5-0.2,1.1-0.3,1.8c1.1-1.4,2.6-2.1,3.7-2.1c3.9-0.1,5.4,3,5.4,6c0.1,2.9-1.6,5.9-4.5,6c-2.6,0-3.7-1.9-3.7-3.5
				c0-0.9,0.2-1.8,0.7-2.4c0.3,0.9,1.1,0.9,1.1,0.9c0.8,0,1.2-0.5,1.2-1c0-0.5-0.3-1.3-1.6-1.3C87.9,143.2,87,144.9,86.7,147.2z"/>
			<path id="XMLID_574_" style="fill:#FFFFFF;" d="M101.7,158.8c-1.4-0.2-3.3-0.3-5.5-0.2c1.5-2.3,2.3-9.3,2.4-10
				c0,0,0.8-7.5,0.1-9.3c1.7,0.5,3.2,0.8,4.4,0.9c1.6,0.2,2.6,0.1,2.6,0.1c-0.6,1.9-1.2,4.8-1.6,7.9c-0.4,3.6-0.5,7.6,0,10.9
				C104.1,159.1,103.2,158.9,101.7,158.8z M103.3,131.7c2,0.2,3.5,2,3.2,4.1s-2,3.5-4.1,3.2s-3.5-2-3.2-4.1
				C99.5,132.9,101.3,131.5,103.3,131.7z"/>
			<path id="XMLID_571_" style="fill:#FFFFFF;" d="M119.5,162.9c-2-0.5-4.4-0.9-5.8-1c1.7-2.8,3.1-6.1,4.2-10.4
				c0.2-0.9,1.1-4.1-0.2-4.5c-1.2-0.3-2.8,1.2-3.3,3.2c-0.9,3.5-1.5,7.5-1.4,10.8c0,0-0.9-0.3-2.4-0.7c-1.4-0.3-3.3-0.7-5.4-0.9
				c1.1-2.3,2.6-6.9,3.7-11.2c0.8-3.2,1.4-6.2,1.5-8c1.6,0.7,3.1,1.2,4.3,1.5c1.5,0.4,2.5,0.5,2.5,0.5c-0.3,0.6-0.6,1.3-0.9,2.2
				c1.9-1.4,3.9-1.9,5.3-1.5c3.1,0.8,3.9,3.6,2.4,9.4c-1,4-2.2,8.5-2.1,11.5C121.2,163.4,120.4,163.2,119.5,162.9z"/>
			<path id="XMLID_564_" style="fill:#FFFFFF;" d="M139.5,166.5c-2.6,6.2-7.2,10.8-13.5,8.1c-3.9-1.7-5-4.2-3.9-6.6
				c1.1-2.5,3.6-3.2,5.3-2.4c1.1,0.5,2,1.6,1.9,3.2c-0.1-0.1-0.2-0.2-0.4-0.3c-0.5-0.2-1.1,0-1.4,0.5c-0.3,0.6,0.2,1,0.6,1.2
				c0.7,0.3,3.2,1.1,6.5-6.6c-2.3,3.2-4.2,2.8-5.4,2.2c-1.4-0.6-5.1-3.8-2.3-10.3c2.9-6.8,7-7.8,9.6-6.7c1.8,0.8,2.4,2.6,2.6,4.1
				c0.2-0.9,0.5-1.9,0.6-2.9c0,0,1,1.1,3.6,2.3c0.8,0.3,1.8,0.7,2.9,1C144,156.2,139.5,166.5,139.5,166.5z M136.5,158
				c0.5-1.1,1.2-3.6,0-4.1c-0.9-0.4-2.6,1.8-3.1,2.9c-0.8,1.9-1.4,4.4-0.4,4.8c1.1,0.5,2.1-0.4,2.7-1.6L136.5,158z"/>
		</g>
		<circle id="XMLID_458_" style="fill:#FFFFFF;" cx="153" cy="165.8" r="3.8"/>
		<circle id="XMLID_457_" style="fill:#FFFFFF;" cx="166.1" cy="169.5" r="3"/>
		<circle id="XMLID_456_" style="fill:#FFFFFF;" cx="176.9" cy="168.4" r="2.2"/>
	</g>
</g>
</svg>
