<?xml version="1.0" encoding="utf-8"?>
<!-- Generator: Adobe Illustrator 19.1.0, SVG Export Plug-In . SVG Version: 6.00 Build 0)  -->
<svg version="1.1" id="Layer_1" xmlns="http://www.w3.org/2000/svg" xmlns:xlink="http://www.w3.org/1999/xlink" x="0px" y="0px"
	 viewBox="0 0 196.7 32.5" style="enable-background:new 0 0 196.7 32.5;" xml:space="preserve">
<path style="fill:#FFFFFF;" d="M0,31.9V0.5h9.5v23.1h11.9v8.3H0z"/>
<path style="fill:#FFFFFF;" d="M22.6,16.2C22.6,6.6,30.1,0,39.8,0S57,6.6,57,16.2s-7.5,16.2-17.2,16.2S22.6,25.9,22.6,16.2z
	 M47.3,16.2c0-4.4-3-7.9-7.5-7.9s-7.5,3.5-7.5,7.9s3,7.9,7.5,7.9S47.3,20.6,47.3,16.2z"/>
<path style="fill:#FFFFFF;" d="M81.5,31.9L69.9,16v15.9h-9.5V0.5h9.8l10.9,14.9V0.5h9.5v31.4H81.5z"/>
<path style="fill:#FFFFFF;" d="M95.7,31.9V0.5h14c9.9,0,17.2,5.7,17.2,15.7s-7.3,15.7-17.2,15.7H95.7z M117.3,16.2
	c0-4.2-2.4-7.4-7.5-7.4h-4.6v14.8h4.5C114.5,23.6,117.3,20.2,117.3,16.2z"/>
<path style="fill:#FFFFFF;" d="M128.7,16.2c0-9.7,7.5-16.2,17.2-16.2S163,6.6,163,16.2s-7.5,16.2-17.2,16.2S128.7,25.9,128.7,16.2z
	 M153.4,16.2c0-4.4-3-7.9-7.5-7.9s-7.5,3.5-7.5,7.9s3,7.9,7.5,7.9S153.4,20.6,153.4,16.2z"/>
<path style="fill:#FFFFFF;" d="M187.5,31.9L175.9,16v15.9h-9.5V0.5h9.8l10.9,14.9V0.5h9.5v31.4H187.5z"/>
</svg>
