<?xml version="1.0" encoding="utf-8"?>
<!-- Generator: Adobe Illustrator 19.1.0, SVG Export Plug-In . SVG Version: 6.00 Build 0)  -->
<svg version="1.1" id="Layer_1" xmlns="http://www.w3.org/2000/svg" xmlns:xlink="http://www.w3.org/1999/xlink" x="0px" y="0px"
	 viewBox="0 0 214 165.6" style="enable-background:new 0 0 214 165.6;" xml:space="preserve">
<g id="HRtechworld_x5F_Logo">
	<path id="XMLID_452_" style="fill:#FFFFFF;" d="M111.8,107c-2.1,0-2.7,1-2.7,4.7c0,3.6,0.6,4.7,2.7,4.7c2.1,0,2.7-1,2.7-4.7
		C114.5,108.1,113.9,107,111.8,107z"/>
	<path id="XMLID_451_" style="fill:#FFFFFF;" d="M81.9,107l-2.9,0v9.3c0,0,2,0,2.9,0c2,0,2.7-1.1,2.7-4.6
		C84.5,108.1,83.9,107,81.9,107z"/>
	<path id="XMLID_450_" style="fill:#FFFFFF;" d="M152.3,107l-2.3,0v5.1h2.3c1.6,0,2-1.1,2-2.6C154.4,108,153.8,107,152.3,107z"/>
	<path id="XMLID_449_" style="fill:#FFFFFF;" d="M132.5,83c0-2.2-0.9-3-4-3c-3.5,0-4.7,1.2-4.9,5.2h6.7
		C132.3,85.1,132.5,84.3,132.5,83z"/>
	<path id="XMLID_448_" style="fill:#FFFFFF;" d="M45.6,107c-2.1,0-2.7,1-2.7,4.7c0,3.6,0.6,4.7,2.7,4.7c2.1,0,2.7-1,2.7-4.7
		C48.3,108.1,47.6,107,45.6,107z"/>
	<path id="XMLID_447_" style="fill:#FFFFFF;" d="M71.4,76.1c0-3.7-1.6-5-5.4-5h-6v10h6.5C70.3,81.1,71.4,79.7,71.4,76.1z"/>
	<path id="XMLID_446_" style="fill:#FFFFFF;" d="M58.6,107l-2.6,0v5.1h2.9c1.6,0,1.9-1.1,1.9-2.6C60.8,108,60.1,107,58.6,107z"/>
	<path id="XMLID_455_" style="fill:#FFFFFF;" d="M214,97c0-18.8-11.3-35-27.6-42.1C180,23.5,152.3,0,119.1,0c-19.4,0-37,8.1-49.5,21
		c-2.8-0.7-5.8-1-8.8-1c-20.6,0-37.4,16.6-37.8,37.1C9.3,65,0,79.9,0,97c0,0.3,0,0.7,0,1c0,0.3,0,0.5,0,0.8
		c0,25.4,20.6,45.9,45.9,45.9c5.8,0,11.3-1.1,16.3-3c10.6,14.5,27.8,23.9,47.1,23.9c18.8,0,35.5-8.9,46.2-22.7
		c4,1.1,8.2,1.7,12.5,1.7c25.4,0,45.9-20.6,45.9-45.9c0-0.2,0-0.5,0-0.7C214,97.7,214,97.3,214,97z M144.3,12.3
		c17.7,7.3,27.6,23.2,30.5,38.9l0.3,1.4c-9-27.7-30.9-37.8-43.3-39.9c-19.5-3.4-37.1,2-49.4,10.9C96.3,6,126.2,4.8,144.3,12.3z
		 M22,66.1h7v14h11v-14h8v34h-8v-17H29v17h-7V66.1z M36.1,117.7c-0.1,0.5-0.5,1.5-1.1,1.5h-2.9c-0.5,0-1-0.7-1.1-1.2l-1.5-9.5
		c-0.1-0.6-0.2-2.3-0.2-2.3H29c-0.1,0-0.1,1.6-0.2,2.2l-1.5,9.5c-0.1,0.5-0.5,1.3-1.1,1.3h-2.9c-0.5,0-1-1-1.1-1.5L20,104.1h3.1
		l1.3,10.3c0.1,0.6,0.1,2.7,0.2,2.7H25c0.1,0,0.2-1.8,0.3-2.4l1.5-9.1c0.1-0.6,0.5-1.5,1.1-1.5h2.6c0.6,0,1,0.7,1.1,1.3l1.5,9.2
		c0.1,0.6,0.2,2.5,0.3,2.5h0.4c0,0,0.1-2.1,0.2-2.7l1.4-10.3h3.1L36.1,117.7z M45.6,118.8c-4.3,0-5.9-1.6-5.9-7.1
		c0-5.5,1.5-7.1,5.9-7.1c4.3,0,5.9,1.6,5.9,7.1C51.5,117.2,49.9,118.8,45.6,118.8z M61.4,119.1l-1-4.5c-0.3-0.9-1.1-1.3-1.9-1.3
		l-2.5-0.2v6h-2v-14.3c1-0.2,2.6-0.2,5-0.2c3.6,0,4.4,0.9,4.4,4.1c0,1.9,1.6,3.2-3.4,3.4v0.1c1,0.2,2.3,1,2.7,2.4l1.9,4.6H61.4z
		 M60,86.6v13.6h-6V66.6c3-0.4,6.6-0.4,12.5-0.4c8.6,0,11.9,2.2,11.9,9.7c0,4.6-2.4,7.6-6.4,8.1v0.2c1,0.4,4.1,1.9,4.9,5.3l3.1,10.6
		h-7.7l-2.5-10.4c-0.6-2.1-2.2-3-4.1-3L60,86.6z M70.4,118.6c-2.2,0-2.4-1.2-2.4-2.9v-11.5h2v10.9c0,0.7-0.2,2.1,0.6,2.1h4.7
		l0.5,1.8C74,119.1,72.3,118.6,70.4,118.6z M81.9,118.7c-2.1,0-4.9-0.1-5.9-0.2v-13.7c1-0.1,3.8-0.2,5.9-0.2c4.3,0,5.8,1.6,5.8,7
		C87.7,117.1,86.2,118.7,81.9,118.7z M91,66.1h28v6h-10v28h-6v-28H91V66.1z M100.3,118.8c-4.2,0-5.8-1.9-5.8-7.1
		c0-5.2,1.5-7.1,5.8-7.1c1.9,0,2.9,0.1,4.1,0.5l-0.3,2.3c-1.3-0.1-2.1-0.1-3.9-0.1c-2,0-2.6,1-2.6,4.5c0,3.5,0.6,4.5,2.6,4.5
		c1.8,0,2.9,0,4.1-0.2l0.3,2.2C103.4,118.6,102.2,118.8,100.3,118.8z M111.8,118.8c-4.3,0-5.9-1.6-5.9-7.1c0-5.5,1.5-7.1,5.9-7.1
		c4.3,0,5.9,1.6,5.9,7.1C117.7,117.2,116.1,118.8,111.8,118.8z M116.4,87.7c0-9.3,3.4-12.4,11.9-12.4c8,0,11.1,1.9,11.1,7.3
		c0,4.3-2,5.6-7.1,5.6h-8.5c0.4,7,2,5.3,5.6,5.3c2.1,0,5.6,0.3,8.7,0l0.7,4.6c-2.8,1.3-6.9,1.9-10.2,1.9
		C119.7,99.9,116.4,96.3,116.4,87.7z M131,117.5c0,0.7,0.2,1.7-0.5,1.7h-1.9c-0.6,0-0.9-0.5-1.2-1.1l-3.6-8
		c-0.3-0.6-0.7-2.8-0.8-2.8h-0.2c0.1,0,0.3,2.5,0.3,3.3v8.7h-3v-13.2c0-0.7,0.4-1.8,1.1-1.8h1.8c0.6,0,0.9,0.6,1.2,1.2l3.5,7.4
		c0.3,0.6,0.7,2.4,1,2.4h0.2c-0.1,0-0.8-1.6-0.8-2.4v-8.6h3V117.5z M145,119.1h-2.5l-0.3-1.7c-0.7,0.7-2.1,1.5-4,1.5
		c-3.1,0-4.4-2.2-4.4-7.2c0-5.4,1.6-7.1,6.1-7.1c1.6,0,2.9,0.1,4.2,0.5l-0.2,2.2c-1.4-0.1-2.7-0.1-3.9-0.1c-2.3,0-3,0.6-3,4.6
		c0,3.4,0.1,4.5,1.8,4.5c1,0,2.1-0.3,2.1-0.7v-4.4h4V119.1z M143,87.7c0-9.1,3.2-12.4,11.8-12.4c2.4,0,6.1,0.3,8.7,1.5l-0.8,4.4
		c-2.6,0-4.9-0.1-6.7-0.1c-4.2,0-5.7,1.4-5.7,6.6c0,5.2,1.4,6.6,5.7,6.6c1.5,0,4.5,0,7.2-0.4l0.6,4.6c-2.5,1.1-5.9,1.6-9.1,1.6
		C146.2,100,143,96.7,143,87.7z M154.8,119.1l-1-4.5c-0.3-0.9-0.8-1.3-1.6-1.3l-2.2-0.2v6h-3v-14.3c1-0.2,2.9-0.2,5.4-0.2
		c3.6,0,5.6,0.9,5.6,4.1c0,1.9-1,3.2-2,3.4v0.1c0,0.2,1,1,1.4,2.4l0.6,4.6H154.8z M162.9,118.6c-1.8,0-2.9-1.1-2.9-2.8v-8.3
		c0-1.7,1.1-2.7,2.9-2.7c2.1,0,4.4-0.6,6.3-0.4l-0.2,1.7h-5.3c-0.7,0-0.8,1.4-0.8,2.1v2.9h4v2h-4v2c0,0.7,0.1,2,0.8,2h5.3l0.2,1.7
		C167.4,119.1,165.1,118.6,162.9,118.6z M175.7,118.8c-0.9,0-2.6-0.1-4.7-0.5l0.2-2.2c2.5,0.1,3.7,0.1,4.5,0.1c1.6,0,2-0.2,2-1.3
		c0-1-0.4-1.2-1.3-1.5l-2.8-1c-2.1-0.8-2.8-2-2.8-4c0-3.1,1.5-3.8,5-3.8c1.4,0,3,0.1,4.5,0.5l-0.2,2.1c-1.2,0-2.8-0.1-4.3-0.1
		c-1.5,0-2,0.1-2,1.3c0,1,0.4,1.2,1.4,1.5l2.6,0.9c2.2,0.8,2.9,2,2.9,4C180.8,118,179.5,118.8,175.7,118.8z M175,83.4v16.8h-8v-35h8
		v9.1c0,1.8,0,3.5-0.3,4.9c3.1-2.5,7.4-3.9,10.6-3.9c4.3,0,7.6,2.3,7.6,6.5v18.3h-9V84c0-2.1-0.7-2.8-2.4-2.8
		C179.7,81.2,178,81.9,175,83.4z M187.3,118.8c-0.9,0-2.6-0.1-4.7-0.5l0.2-2.2c2.5,0.1,3.7,0.1,4.5,0.1c1.6,0,2-0.2,2-1.3
		c0-1-0.4-1.2-1.3-1.5l-2.8-1c-2.1-0.8-2.8-2-2.8-4c0-3.1,1.5-3.8,5-3.8c1.4,0,3,0.1,4.5,0.5l-0.2,2.1c-1.2,0-2.8-0.1-4.3-0.1
		c-1.5,0-2,0.1-2,1.3c0,1,0.4,1.2,1.4,1.5l2.6,0.9c2.2,0.8,2.9,2,2.9,4C192.4,118,191,118.8,187.3,118.8z"/>
</g>
</svg>
