<?xml version="1.0" encoding="utf-8"?>
<!-- Generator: Adobe Illustrator 19.1.0, SVG Export Plug-In . SVG Version: 6.00 Build 0)  -->
<svg version="1.1" id="Layer_1" xmlns="http://www.w3.org/2000/svg" xmlns:xlink="http://www.w3.org/1999/xlink" x="0px" y="0px"
	 viewBox="0 0 200.3 48.6" style="enable-background:new 0 0 200.3 48.6;" xml:space="preserve">
<path style="fill:#FFFFFF;" d="M0,47.8V0.7h25.1c11,0,16.9,7.3,16.9,16.2c0,8.8-5.9,16.1-16.9,16.1H14.3v14.8H0z M27.6,16.9
	c0-2.5-1.9-3.7-4.3-3.7h-9v7.4h9C25.7,20.5,27.6,19.3,27.6,16.9z"/>
<path style="fill:#FFFFFF;" d="M73.2,47.8l-1.7-5.5H54.6l-1.7,5.5H36.7L54.1,0.7H72l17.4,47.1H73.2z M63,14.7l-4.7,15.2h9.3L63,14.7
	z"/>
<path style="fill:#FFFFFF;" d="M117.8,47.8L111.3,33h-5.2v14.8H91.9V0.7h25.1c11,0,16.9,7.3,16.9,16.2c0,8.1-4.7,12.4-8.5,14.3
	l8.5,16.7H117.8z M119.5,16.8c0-2.5-2.3-3.7-4.7-3.7h-8.7v7.4h8.7C117.3,20.5,119.5,19.4,119.5,16.8z"/>
<path style="fill:#FFFFFF;" d="M139.8,47.8V0.7h14.3v47.1H139.8z"/>
<path style="fill:#FFFFFF;" d="M158.1,41.2l7.4-10.6c3.5,3.4,8.8,6.1,15.2,6.1c2.7,0,5.2-0.7,5.2-2.5c0-4.5-26.3,0.1-26.3-18.5
	c0-8,6.6-15.6,19.6-15.6c7.7,0,14.6,2.2,20,6.6l-7.6,10.1c-4.1-3.1-9.4-4.7-13.8-4.7c-2.8,0-3.6,0.9-3.6,2.1
	c0,4.4,26.2,0.6,26.2,18.1c0,10.4-7.7,16.4-20.3,16.4C169.9,48.6,163.1,45.7,158.1,41.2z"/>
</svg>
