<?xml version="1.0" encoding="utf-8"?>
<!-- Generator: Adobe Illustrator 19.1.0, SVG Export Plug-In . SVG Version: 6.00 Build 0)  -->
<svg version="1.1" id="Layer_1" xmlns="http://www.w3.org/2000/svg" xmlns:xlink="http://www.w3.org/1999/xlink" x="0px" y="0px"
	 viewBox="0 0 122.4 57.1" style="enable-background:new 0 0 122.4 57.1;" xml:space="preserve">
<g id="_x22_HRN_CONTACT_x22_">
	<g id="XMLID_885_">
		<g id="XMLID_942_">
			<path style="fill:#E63B34;" d="M0,48.4c0-5.2,4-8.7,9.3-8.7c4.4,0,6.6,2.6,7.7,4.9l-4.4,2c-0.4-1.3-1.7-2.5-3.3-2.5
				c-2.5,0-4.1,1.9-4.1,4.2c0,2.3,1.6,4.2,4.1,4.2c1.5,0,2.8-1.1,3.3-2.5l4.4,2c-1,2.2-3.2,4.9-7.7,4.9C4,57.1,0,53.5,0,48.4z"/>
			<path style="fill:#E63B34;" d="M17.6,48.4c0-5.2,4-8.7,9.2-8.7s9.2,3.5,9.2,8.7c0,5.2-4,8.7-9.2,8.7S17.6,53.5,17.6,48.4z
				 M30.9,48.4c0-2.4-1.6-4.2-4-4.2s-4,1.9-4,4.2c0,2.3,1.6,4.2,4,4.2S30.9,50.7,30.9,48.4z"/>
			<path style="fill:#E63B34;" d="M49.2,56.8L43,48.2v8.5h-5.1V39.9h5.3l5.9,8v-8h5.1v16.9H49.2z"/>
			<path style="fill:#E63B34;" d="M60.4,56.8V44.4h-4.5v-4.4H70v4.4h-4.5v12.4H60.4z"/>
			<path style="fill:#E63B34;" d="M81.6,56.8l-0.6-2h-6.1l-0.6,2h-5.8l6.2-16.9h6.4l6.2,16.9H81.6z M77.9,44.9l-1.7,5.4h3.3
				L77.9,44.9z"/>
			<path style="fill:#E63B34;" d="M86.6,48.4c0-5.2,4-8.7,9.3-8.7c4.4,0,6.6,2.6,7.7,4.9l-4.4,2c-0.4-1.3-1.7-2.5-3.3-2.5
				c-2.5,0-4.1,1.9-4.1,4.2c0,2.3,1.6,4.2,4.1,4.2c1.5,0,2.8-1.1,3.3-2.5l4.4,2c-1,2.2-3.2,4.9-7.7,4.9
				C90.6,57.1,86.6,53.5,86.6,48.4z"/>
			<path style="fill:#E63B34;" d="M108.7,56.8V44.4h-4.5v-4.4h14.1v4.4h-4.5v12.4H108.7z"/>
		</g>
		<g id="XMLID_929_">
			<path style="fill:#45B3E6;" d="M3.2,48.4c0-5.2,4-8.7,9.3-8.7c4.4,0,6.6,2.6,7.7,4.9l-4.4,2c-0.4-1.3-1.7-2.5-3.3-2.5
				c-2.5,0-4.1,1.9-4.1,4.2c0,2.3,1.6,4.2,4.1,4.2c1.5,0,2.8-1.1,3.3-2.5l4.4,2c-1,2.2-3.2,4.9-7.7,4.9C7.2,57.1,3.2,53.5,3.2,48.4z
				"/>
			<path style="fill:#45B3E6;" d="M20.8,48.4c0-5.2,4-8.7,9.2-8.7s9.2,3.5,9.2,8.7c0,5.2-4,8.7-9.2,8.7S20.8,53.5,20.8,48.4z
				 M34,48.4c0-2.4-1.6-4.2-4-4.2s-4,1.9-4,4.2c0,2.3,1.6,4.2,4,4.2S34,50.7,34,48.4z"/>
			<path style="fill:#45B3E6;" d="M52.3,56.8l-6.2-8.5v8.5H41V39.9h5.3l5.9,8v-8h5.1v16.9H52.3z"/>
			<path style="fill:#45B3E6;" d="M63.6,56.8V44.4h-4.5v-4.4h14.1v4.4h-4.5v12.4H63.6z"/>
			<path style="fill:#45B3E6;" d="M84.7,56.8l-0.6-2h-6.1l-0.6,2h-5.8l6.2-16.9h6.4l6.2,16.9H84.7z M81.1,44.9l-1.7,5.4h3.3
				L81.1,44.9z"/>
			<path style="fill:#45B3E6;" d="M89.8,48.4c0-5.2,4-8.7,9.3-8.7c4.4,0,6.6,2.6,7.7,4.9l-4.4,2c-0.4-1.3-1.7-2.5-3.3-2.5
				c-2.5,0-4.1,1.9-4.1,4.2c0,2.3,1.6,4.2,4.1,4.2c1.5,0,2.8-1.1,3.3-2.5l4.4,2c-1,2.2-3.2,4.9-7.7,4.9
				C93.8,57.1,89.8,53.5,89.8,48.4z"/>
			<path style="fill:#45B3E6;" d="M111.9,56.8V44.4h-4.5v-4.4h14.1v4.4H117v12.4H111.9z"/>
		</g>
		<g id="XMLID_886_">
			<path style="fill:#FFFFFF;" d="M1.6,48.4c0-5.2,4-8.7,9.3-8.7c4.4,0,6.6,2.6,7.7,4.9l-4.4,2c-0.4-1.3-1.7-2.5-3.3-2.5
				c-2.5,0-4.1,1.9-4.1,4.2c0,2.3,1.6,4.2,4.1,4.2c1.5,0,2.8-1.1,3.3-2.5l4.4,2c-1,2.2-3.2,4.9-7.7,4.9C5.6,57.1,1.6,53.5,1.6,48.4z
				"/>
			<path style="fill:#FFFFFF;" d="M19.2,48.4c0-5.2,4-8.7,9.2-8.7s9.2,3.5,9.2,8.7c0,5.2-4,8.7-9.2,8.7S19.2,53.5,19.2,48.4z
				 M32.5,48.4c0-2.4-1.6-4.2-4-4.2s-4,1.9-4,4.2c0,2.3,1.6,4.2,4,4.2S32.5,50.7,32.5,48.4z"/>
			<path style="fill:#FFFFFF;" d="M50.8,56.8l-6.2-8.5v8.5h-5.1V39.9h5.3l5.9,8v-8h5.1v16.9H50.8z"/>
			<path style="fill:#FFFFFF;" d="M62,56.8V44.4h-4.5v-4.4h14.1v4.4h-4.5v12.4H62z"/>
			<path style="fill:#FFFFFF;" d="M83.2,56.8l-0.6-2h-6.1l-0.6,2h-5.8l6.2-16.9h6.4l6.2,16.9H83.2z M79.5,44.9l-1.7,5.4h3.3
				L79.5,44.9z"/>
			<path style="fill:#FFFFFF;" d="M88.2,48.4c0-5.2,4-8.7,9.3-8.7c4.4,0,6.6,2.6,7.7,4.9l-4.4,2c-0.4-1.3-1.7-2.5-3.3-2.5
				c-2.5,0-4.1,1.9-4.1,4.2c0,2.3,1.6,4.2,4.1,4.2c1.5,0,2.8-1.1,3.3-2.5l4.4,2c-1,2.2-3.2,4.9-7.7,4.9
				C92.2,57.1,88.2,53.5,88.2,48.4z"/>
			<path style="fill:#FFFFFF;" d="M110.3,56.8V44.4h-4.5v-4.4h14.1v4.4h-4.5v12.4H110.3z"/>
		</g>
	</g>
	<g id="XMLID_661_">
		<g id="XMLID_854_">
			<path id="XMLID_857_" style="fill:#45B3E6;" d="M74.6,32.8l-2-3.9h0.8l-1-1.9H72l-1.5-3c2.9-1.4,6.7-4.8,6.7-11.2
				c0-7-4.7-12.7-13.3-12.7H44v26.9h-0.5v1.9h1.1v3.9H44v3.9h11.2v-3.8h0v-4.2h-1.6V27h1.2v-1.5h4.5L60,27h0l0.8,1.7h0l1.8,4.2h0.1
				l1.7,3.8h12.8l-2-3.9H74.6z M55.3,15.6V9.8h6.8c1.9,0,3.7,0.9,3.7,2.9c0,2.1-1.8,2.9-3.7,2.9H55.3z"/>
			<polygon id="XMLID_856_" style="fill:#45B3E6;" points="37.4,27 38,27 38,0 26.8,0 26.8,13.1 13.5,13.1 13.5,0 2.3,0 2.3,26.9 
				0.5,26.9 0.5,28.8 4.3,28.8 4.3,32.8 2.3,32.8 2.3,36.7 13.5,36.7 13.5,32.9 15.1,32.9 15.1,28.7 12.1,28.7 12.1,27 13.5,27 
				13.5,22.9 26.8,22.9 26.8,26.9 25.8,26.9 25.8,28.8 27.9,28.8 27.9,32.8 26.8,32.8 26.8,36.7 38,36.7 38,32.9 38.8,32.9 
				38.8,28.7 37.4,28.7 			"/>
			<polygon id="XMLID_855_" style="fill:#45B3E6;" points="119.3,28.8 119.3,26.9 117.5,26.9 117.5,0 106.2,0 106.2,17.6 93.3,0 
				81.7,0 81.7,27 82.4,27 82.4,28.7 81,28.7 81,32.9 81.7,32.9 81.7,36.7 93,36.7 93,32.8 91.8,32.8 91.8,28.8 94,28.8 94,26.9 
				93,26.9 93,18.3 99.3,27 100.5,27 101.8,28.7 99.2,28.7 102.3,32.9 103.9,32.9 106.7,36.7 117.5,36.7 117.5,32.8 115.5,32.8 
				115.5,28.8 			"/>
		</g>
		<g id="XMLID_813_">
			<path id="XMLID_821_" style="fill:#E63B34;" d="M77.8,32.8l-2-3.9h0.8l-1-1.9h-0.4l-1.5-3c2.9-1.4,6.7-4.8,6.7-11.2
				C80.3,5.8,75.6,0,67,0H47.2v26.9h-0.5v1.9h1.1v3.9h-0.6v3.9h11.2v-3.8h0v-4.2h-1.6V27H58v-1.5h4.5l0.7,1.5h0l0.8,1.7h0l1.8,4.2
				h0.1l1.7,3.8h12.8l-2-3.9H77.8z M58.4,15.6V9.8h6.8c1.9,0,3.7,0.9,3.7,2.9c0,2.1-1.8,2.9-3.7,2.9H58.4z"/>
			<polygon id="XMLID_815_" style="fill:#E63B34;" points="40.5,27 41.1,27 41.1,0 29.9,0 29.9,13.1 16.6,13.1 16.6,0 5.4,0 
				5.4,26.9 3.6,26.9 3.6,28.8 7.4,28.8 7.4,32.8 5.4,32.8 5.4,36.7 16.6,36.7 16.6,32.9 18.2,32.9 18.2,28.7 15.2,28.7 15.2,27 
				16.6,27 16.6,22.9 29.9,22.9 29.9,26.9 28.9,26.9 28.9,28.8 31.1,28.8 31.1,32.8 29.9,32.8 29.9,36.7 41.1,36.7 41.1,32.9 
				41.9,32.9 41.9,28.7 40.5,28.7 			"/>
			<polygon id="XMLID_814_" style="fill:#E63B34;" points="122.4,28.8 122.4,26.9 120.6,26.9 120.6,0 109.3,0 109.3,17.6 96.4,0 
				84.9,0 84.9,27 85.5,27 85.5,28.7 84.1,28.7 84.1,32.9 84.9,32.9 84.9,36.7 96.1,36.7 96.1,32.8 95,32.8 95,28.8 97.1,28.8 
				97.1,26.9 96.1,26.9 96.1,18.3 102.4,27 103.6,27 104.9,28.7 102.3,28.7 105.4,32.9 107,32.9 109.8,36.7 120.6,36.7 120.6,32.8 
				118.6,32.8 118.6,28.8 			"/>
		</g>
		<g id="XMLID_673_">
			<path id="XMLID_678_" style="fill:#FFFFFF;" d="M76.2,32.8l-2-3.9H75l-1-1.9h-0.4l-1.5-3c2.9-1.4,6.7-4.8,6.7-11.2
				c0-7-4.7-12.7-13.3-12.7H45.6v26.9h-0.5v1.9h1.1v3.9h-0.6v3.9h11.2v-3.8h0v-4.2h-1.6V27h1.2v-1.5h4.5l0.7,1.5h0l0.8,1.7h0
				l1.8,4.2h0.1l1.7,3.8h12.8l-2-3.9H76.2z M56.8,15.6V9.8h6.8c1.9,0,3.7,0.9,3.7,2.9c0,2.1-1.8,2.9-3.7,2.9H56.8z"/>
			<polygon id="XMLID_677_" style="fill:#FFFFFF;" points="38.9,27 39.6,27 39.6,0 28.4,0 28.4,13.1 15.1,13.1 15.1,0 3.8,0 
				3.8,26.9 2,26.9 2,28.8 5.8,28.8 5.8,32.8 3.8,32.8 3.8,36.7 15.1,36.7 15.1,32.9 16.7,32.9 16.7,28.7 13.6,28.7 13.6,27 
				15.1,27 15.1,22.9 28.4,22.9 28.4,26.9 27.3,26.9 27.3,28.8 29.5,28.8 29.5,32.8 28.4,32.8 28.4,36.7 39.6,36.7 39.6,32.9 
				40.3,32.9 40.3,28.7 38.9,28.7 			"/>
			<polygon id="XMLID_676_" style="fill:#FFFFFF;" points="120.8,28.8 120.8,26.9 119,26.9 119,0 107.8,0 107.8,17.6 94.9,0 83.3,0 
				83.3,27 84,27 84,28.7 82.6,28.7 82.6,32.9 83.3,32.9 83.3,36.7 94.5,36.7 94.5,32.8 93.4,32.8 93.4,28.8 95.6,28.8 95.6,26.9 
				94.5,26.9 94.5,18.3 100.8,27 102.1,27 103.4,28.7 100.8,28.7 103.8,32.9 105.4,32.9 108.2,36.7 119,36.7 119,32.8 117,32.8 
				117,28.8 			"/>
		</g>
	</g>
</g>
</svg>
