<?xml version="1.0" encoding="utf-8"?>
<!-- Generator: Adobe Illustrator 19.0.0, SVG Export Plug-In . SVG Version: 6.00 Build 0)  -->
<!DOCTYPE svg PUBLIC "-//W3C//DTD SVG 1.1//EN" "http://www.w3.org/Graphics/SVG/1.1/DTD/svg11.dtd">
<svg version="1.1" id="Layer_1" xmlns="http://www.w3.org/2000/svg" xmlns:xlink="http://www.w3.org/1999/xlink" x="0px" y="0px"
	 viewBox="0 0 98.8 29.8" style="enable-background:new 0 0 98.8 29.8;" xml:space="preserve">
<style type="text/css">
	.st0{fill:#45B3E6;}
	.st1{fill:#E63B34;}
	.st2{fill:#FFFFFF;}
</style>
<g id="MenuMini_Logo">
	<g id="XMLID_4259_">
		<path id="XMLID_4260_" class="st0" d="M60.1,26.6l-1.6-3.2h0.6l-0.8-1.6H58l-1.2-2.4c2.4-1.2,5.4-3.9,5.4-9.1
			C62.2,4.7,58.4,0,51.4,0h-16v21.8h-0.4v1.6h0.9v3.2h-0.5v3.2h9.1v-3.1h0v-3.4h-1.3v-1.4h0.9v-1.3h3.6l0.5,1.3h0l0.6,1.4h0l1.5,3.4
			h0.1l1.4,3.1h10.4l-1.6-3.2H60.1z M44.4,12.7V7.9H50c1.5,0,3,0.7,3,2.3c0,1.7-1.4,2.4-3,2.4H44.4z"/>
		<polygon id="XMLID_4263_" class="st0" points="29.9,21.9 30.5,21.9 30.5,0 21.3,0 21.3,10.6 10.6,10.6 10.6,0 1.5,0 1.5,21.8 
			0,21.8 0,23.4 3.1,23.4 3.1,26.6 1.5,26.6 1.5,29.8 10.6,29.8 10.6,26.7 11.9,26.7 11.9,23.3 9.4,23.3 9.4,21.9 10.6,21.9 
			10.6,18.6 21.3,18.6 21.3,21.8 20.5,21.8 20.5,23.4 22.3,23.4 22.3,26.6 21.3,26.6 21.3,29.8 30.5,29.8 30.5,26.7 31.1,26.7 
			31.1,23.3 29.9,23.3 		"/>
		<polygon id="XMLID_4264_" class="st0" points="96.3,23.4 96.3,21.8 94.8,21.8 94.8,0 85.7,0 85.7,14.2 75.3,0 65.9,0 65.9,21.9 
			66.4,21.9 66.4,23.3 65.3,23.3 65.3,26.7 65.9,26.7 65.9,29.8 75,29.8 75,26.6 74.1,26.6 74.1,23.4 75.8,23.4 75.8,21.8 75,21.8 
			75,14.8 80.1,21.9 81.1,21.9 82.2,23.3 80.1,23.3 82.5,26.7 83.8,26.7 86.1,29.8 94.8,29.8 94.8,26.6 93.2,26.6 93.2,23.4 		"/>
	</g>
	<g id="XMLID_4265_">
		<path id="XMLID_4266_" class="st1" d="M62.6,26.6L61,23.4h0.6l-0.8-1.6h-0.3l-1.2-2.4c2.4-1.2,5.4-3.9,5.4-9.1
			C64.7,4.7,60.9,0,53.9,0h-16v21.8h-0.4v1.6h0.9v3.2h-0.5v3.2h9.1v-3.1h0v-3.4h-1.3v-1.4h0.9v-1.3h3.6l0.5,1.3h0l0.6,1.4h0l1.5,3.4
			H53l1.4,3.1h10.4l-1.6-3.2H62.6z M46.9,12.7V7.9h5.5c1.5,0,3,0.7,3,2.3c0,1.7-1.4,2.4-3,2.4H46.9z"/>
		<polygon id="XMLID_4269_" class="st1" points="32.4,21.9 33,21.9 33,0 23.9,0 23.9,10.6 13.1,10.6 13.1,0 4,0 4,21.8 2.5,21.8 
			2.5,23.4 5.6,23.4 5.6,26.6 4,26.6 4,29.8 13.1,29.8 13.1,26.7 14.4,26.7 14.4,23.3 11.9,23.3 11.9,21.9 13.1,21.9 13.1,18.6 
			23.9,18.6 23.9,21.8 23,21.8 23,23.4 24.8,23.4 24.8,26.6 23.9,26.6 23.9,29.8 33,29.8 33,26.7 33.6,26.7 33.6,23.3 32.4,23.3 		
			"/>
		<polygon id="XMLID_4270_" class="st1" points="98.8,23.4 98.8,21.8 97.4,21.8 97.4,0 88.2,0 88.2,14.2 77.8,0 68.4,0 68.4,21.9 
			69,21.9 69,23.3 67.8,23.3 67.8,26.7 68.4,26.7 68.4,29.8 77.5,29.8 77.5,26.6 76.6,26.6 76.6,23.4 78.4,23.4 78.4,21.8 
			77.5,21.8 77.5,14.8 82.6,21.9 83.6,21.9 84.7,23.3 82.6,23.3 85.1,26.7 86.3,26.7 88.6,29.8 97.4,29.8 97.4,26.6 95.7,26.6 
			95.7,23.4 		"/>
	</g>
	<g id="XMLID_4271_">
		<path id="XMLID_4272_" class="st2" d="M61.4,26.6l-1.6-3.2h0.6l-0.8-1.6h-0.3L58,19.4c2.4-1.2,5.4-3.9,5.4-9.1
			C63.5,4.7,59.7,0,52.6,0h-16v21.8h-0.4v1.6h0.9v3.2h-0.5v3.2h9.1v-3.1h0v-3.4h-1.3v-1.4h0.9v-1.3H49l0.5,1.3h0l0.6,1.4h0l1.5,3.4
			h0.1l1.4,3.1h10.4l-1.6-3.2H61.4z M45.7,12.7V7.9h5.5c1.5,0,3,0.7,3,2.3c0,1.7-1.4,2.4-3,2.4H45.7z"/>
		<polygon id="XMLID_4275_" class="st2" points="31.2,21.9 31.7,21.9 31.7,0 22.6,0 22.6,10.6 11.8,10.6 11.8,0 2.7,0 2.7,21.8 
			1.3,21.8 1.3,23.4 4.3,23.4 4.3,26.6 2.7,26.6 2.7,29.8 11.8,29.8 11.8,26.7 13.1,26.7 13.1,23.3 10.7,23.3 10.7,21.9 11.8,21.9 
			11.8,18.6 22.6,18.6 22.6,21.8 21.8,21.8 21.8,23.4 23.5,23.4 23.5,26.6 22.6,26.6 22.6,29.8 31.7,29.8 31.7,26.7 32.3,26.7 
			32.3,23.3 31.2,23.3 		"/>
		<polygon id="XMLID_4276_" class="st2" points="97.6,23.4 97.6,21.8 96.1,21.8 96.1,0 87,0 87,14.2 76.5,0 67.1,0 67.1,21.9 
			67.7,21.9 67.7,23.3 66.5,23.3 66.5,26.7 67.1,26.7 67.1,29.8 76.3,29.8 76.3,26.6 75.3,26.6 75.3,23.4 77.1,23.4 77.1,21.8 
			76.3,21.8 76.3,14.8 81.4,21.9 82.4,21.9 83.4,23.3 81.3,23.3 83.8,26.7 85.1,26.7 87.3,29.8 96.1,29.8 96.1,26.6 94.5,26.6 
			94.5,23.4 		"/>
	</g>
</g>
</svg>
