<?xml version="1.0" encoding="utf-8"?>
<!-- Generator: Adobe Illustrator 19.1.0, SVG Export Plug-In . SVG Version: 6.00 Build 0)  -->
<svg version="1.1" id="Layer_1" xmlns="http://www.w3.org/2000/svg" xmlns:xlink="http://www.w3.org/1999/xlink" x="0px" y="0px"
	 viewBox="0 0 672.9 89.7" style="enable-background:new 0 0 672.9 89.7;" xml:space="preserve">
<g id="ABOUT_US_TITLE">
	<path style="fill:#FFFFFF;" d="M67.2,88.1L64.1,78H32.9l-3.1,10.1H0L32,1.4h33l32,86.7H67.2z M48.5,27.2l-8.6,28h17.2L48.5,27.2z"
		/>
	<path style="fill:#FFFFFF;" d="M101.7,88.1V1.4h52.7c17.9,0,25.7,12,25.7,22.1c0,10.8-6.4,18.1-14.8,19.9
		c9.4,1.4,16.5,10,16.5,21.2c0,12.1-8.2,23.5-25.6,23.5H101.7z M153.4,28.2c0-3-2.5-4.9-5.2-4.9h-20.3v10.1h20.3
		C150.9,33.4,153.4,31.3,153.4,28.2z M155.1,60.8c0-3.1-2.3-5.6-6.1-5.6h-21.1v11.1H149C152.8,66.3,155.1,64.1,155.1,60.8z"/>
	<path style="fill:#FFFFFF;" d="M187.6,44.9C187.6,18.2,208.3,0,235,0c26.8,0,47.5,18.2,47.5,44.9c0,26.7-20.7,44.9-47.5,44.9
		C208.3,89.7,187.6,71.5,187.6,44.9z M255.8,44.9c0-12.1-8.2-21.7-20.8-21.7c-12.6,0-20.8,9.6-20.8,21.7c0,12.1,8.2,21.7,20.8,21.7
		C247.6,66.6,255.8,56.9,255.8,44.9z"/>
	<path style="fill:#FFFFFF;" d="M291.8,52.5V1.4h26.7v50.2c0,8.3,5.5,14.9,16.3,14.9c10.7,0,16.1-6.6,16.1-14.9V1.4h26.7v51
		c0,21.6-13.5,37.3-42.8,37.3S291.8,74,291.8,52.5z"/>
	<path style="fill:#FFFFFF;" d="M410.1,88.1V24.3h-23.3V1.4h72.7v22.9h-23.1v63.8H410.1z"/>
	<path style="fill:#FFFFFF;" d="M502.1,52.5V1.4h26.7v50.2c0,8.3,5.5,14.9,16.3,14.9c10.7,0,16.1-6.6,16.1-14.9V1.4h26.7v51
		c0,21.6-13.5,37.3-42.8,37.3S502.1,74,502.1,52.5z"/>
	<path style="fill:#FFFFFF;" d="M595.1,75.9l13.7-19.5c6.5,6.2,16.3,11.2,28,11.2c4.9,0,9.6-1.3,9.6-4.7c0-8.3-48.4,0.1-48.4-34.1
		c0-14.7,12.2-28.7,36-28.7c14.2,0,26.9,4,36.8,12.1l-14,18.6c-7.5-5.7-17.3-8.6-25.5-8.6c-5.2,0-6.6,1.7-6.6,3.9
		c0,8.2,48.2,1.2,48.2,33.4c0,19.1-14.2,30.2-37.4,30.2C617,89.7,604.4,84.2,595.1,75.9z"/>
</g>
</svg>
