<?xml version="1.0" encoding="utf-8"?>
<!-- Generator: Adobe Illustrator 19.1.0, SVG Export Plug-In . SVG Version: 6.00 Build 0)  -->
<svg version="1.1" id="Layer_1" xmlns="http://www.w3.org/2000/svg" xmlns:xlink="http://www.w3.org/1999/xlink" x="0px" y="0px"
	 viewBox="0 0 92 87" style="enable-background:new 0 0 92 87;" xml:space="preserve">
<polygon style="fill-rule:evenodd;clip-rule:evenodd;fill:#3B5CAD;" points="8.8,57.7 26.1,57.7 26.1,63 21.2,63 21.2,75.6 14,75.6 
	14,63 8.8,63 "/>
<polygon style="fill-rule:evenodd;clip-rule:evenodd;fill:#3B5CAD;" points="34.9,65 31.2,75.6 24.3,75.6 31.1,57.7 38.6,57.7 
	45.6,75.6 38.6,75.6 "/>
<polygon style="fill-rule:evenodd;clip-rule:evenodd;fill:#3B5CAD;" points="43.9,57.7 61.2,57.7 61.2,63 56.3,63 56.3,75.6 
	49.1,75.6 49.1,63 43.9,63 "/>
<polygon style="fill-rule:evenodd;clip-rule:evenodd;fill:#3B5CAD;" points="70,65 66.3,75.6 59.4,75.6 66.2,57.7 73.7,57.7 
	80.7,75.6 73.7,75.6 "/>
<path style="fill-rule:evenodd;clip-rule:evenodd;fill:#3B5CAD;" d="M70.2,24.8c-0.6-1.3-1.5-2.5-2.6-3.6C65.3,18.6,62,16.5,58,15
	c-4-1.5-8.6-2.3-13.2-2.3c-4.6,0-9.2,0.8-13.2,2.3c-4,1.5-7.3,3.6-9.7,6.2c-1.1,1.1-1.9,2.4-2.6,3.6c5.2-1.2,14-2.9,22.2-3.1
	c0.8,0,1.3,0.2,1.7,0.7c0.4,0.6,0.4,2.5,0.4,3.4l-0.2,22.8c0.5,0,0.9,0,1.4,0c0.5,0,0.9,0,1.4,0l-0.2-22.8c0-0.9,0-2.9,0.4-3.4
	c0.4-0.5,0.9-0.7,1.7-0.7C56.2,21.9,65.1,23.6,70.2,24.8"/>
<path style="fill-rule:evenodd;clip-rule:evenodd;fill:#3B5CAD;" d="M71.3,27.8c-7.6-1.7-12.6-2-17.6-2.3c-4.3-0.2-4.4,1.3-4,4.3
	c0,0.2,0.1,0.4,0.1,0.7c1.5,8.6,3.3,16.1,3.6,17.3c10.6-2.4,18.2-9.1,18.2-17C71.7,29.8,71.6,28.8,71.3,27.8"/>
<path style="fill-rule:evenodd;clip-rule:evenodd;fill:#3B5CAD;" d="M39.8,29.8c0.4-3,0.4-4.5-4-4.3c-5,0.3-10,0.6-17.6,2.3
	c-0.2,1-0.4,1.9-0.4,2.9c0,3.4,1.4,6.7,4,9.5c2.4,2.6,5.7,4.7,9.7,6.2c1.4,0.5,3,1,4.5,1.3c0.3-1.2,2.1-8.8,3.6-17.5
	C39.7,30.1,39.8,29.9,39.8,29.8"/>
<rect style="fill:none;" width="92" height="87"/>
</svg>
