<?xml version="1.0" encoding="utf-8"?>
<!-- Generator: Adobe Illustrator 19.1.0, SVG Export Plug-In . SVG Version: 6.00 Build 0)  -->
<svg version="1.1" id="Layer_1" xmlns="http://www.w3.org/2000/svg" xmlns:xlink="http://www.w3.org/1999/xlink" x="0px" y="0px"
	 viewBox="0 0 19.1 19.1" style="enable-background:new 0 0 19.1 19.1;" xml:space="preserve">
<g id="linkedin_3_">
	<rect x="0" style="fill:#BD1F5C;" width="19.1" height="19.1"/>
</g>
<g>
	<path style="fill:#FFFFFF;" d="M11.6,7.6l-0.2,0l0,0c0.6,0.5,0.9,1.2,0.9,2c0,1.5-1.2,2.7-2.7,2.7c-1.5,0-2.7-1.2-2.7-2.7
		c0-0.8,0.3-1.5,0.9-2H5.3l0,2l0,0l0,1.9l0,1c0,0.3,0.1,0.5,0.2,0.7c0.1,0.1,0.2,0.3,0.3,0.3c0.1,0.1,0.2,0.1,0.3,0.1l6.7,0
		c0.5,0,0.9-0.5,0.9-1.2l0-2.9v0l0-2L11.6,7.6z"/>
	<path style="fill:#FFFFFF;" d="M10.7,7.6L10.7,7.6C10.4,7.4,10,7.3,9.5,7.3c-0.4,0-0.8,0.1-1.2,0.3c0,0,0,0,0,0
		C7.7,8,7.2,8.8,7.2,9.6c0,1.3,1.1,2.3,2.3,2.3c1.3,0,2.3-1,2.3-2.3C11.9,8.8,11.4,8,10.7,7.6z M9.5,11.6c-1.1,0-1.9-0.9-1.9-1.9
		c0-1.1,0.9-1.9,1.9-1.9s1.9,0.9,1.9,1.9C11.5,10.7,10.6,11.6,9.5,11.6z"/>
	<path style="fill:#FFFFFF;" d="M13.5,5.8c-0.1-0.1-0.1-0.2-0.2-0.2c-0.1-0.1-0.3-0.1-0.4-0.1H6.2C5.7,5.4,5.3,6,5.3,6.7v0.6h2.8
		C8.5,7.1,9,6.9,9.5,6.9c0.5,0,1,0.1,1.4,0.4h2.8V6.7C13.8,6.3,13.7,6,13.5,5.8z M12.8,6.7c0,0.1-0.1,0.1-0.1,0.1H12
		c-0.1,0-0.1-0.1-0.1-0.1V6C11.9,6,12,5.9,12,5.9h0.6c0.1,0,0.1,0.1,0.1,0.1V6.7z"/>
</g>
</svg>
