<?xml version="1.0" encoding="utf-8"?>
<!-- Generator: Adobe Illustrator 19.1.0, SVG Export Plug-In . SVG Version: 6.00 Build 0)  -->
<svg version="1.1" id="Layer_1" xmlns="http://www.w3.org/2000/svg" xmlns:xlink="http://www.w3.org/1999/xlink" x="0px" y="0px"
	 viewBox="0 0 19.1 19.1" style="enable-background:new 0 0 19.1 19.1;" xml:space="preserve">
<g id="linkedin_12_">
	<rect x="0" style="fill:#82BACB;" width="19.1" height="19.1"/>
	<path style="fill:#FFFFFF;" d="M7.7,12.5H6.5v-4h1.3V12.5z M7.1,7.9L7.1,7.9c-0.5,0-0.8-0.3-0.8-0.7c0-0.4,0.3-0.7,0.8-0.7
		c0.5,0,0.8,0.3,0.8,0.7C7.8,7.6,7.5,7.9,7.1,7.9z M12.8,12.5h-1.4v-2.1c0-0.5-0.2-0.9-0.7-0.9c-0.4,0-0.6,0.3-0.7,0.5
		c0,0.1,0,0.2,0,0.3v2.2H8.5c0,0,0-3.7,0-4h1.4v0.6c0.1-0.3,0.5-0.7,1.3-0.7c0.9,0,1.6,0.6,1.6,1.8V12.5z"/>
</g>
</svg>
