<?xml version="1.0" encoding="utf-8"?>
<!-- Generator: Adobe Illustrator 19.1.0, SVG Export Plug-In . SVG Version: 6.00 Build 0)  -->
<svg version="1.1" id="Layer_1" xmlns="http://www.w3.org/2000/svg" xmlns:xlink="http://www.w3.org/1999/xlink" x="0px" y="0px"
	 viewBox="0 0 35.1 26.6" style="enable-background:new 0 0 35.1 26.6;" xml:space="preserve">
<g id="QUOTE_MARK">
	<path style="fill:none;stroke:#333333;stroke-miterlimit:10;" d="M9.6,0.6L15,4.9c-2.3,1-5.7,4.2-6.6,7c0.4-0.1,1.1-0.3,1.9-0.3
		c3.5,0,6.4,2.7,6.4,6.8c0,4.2-3.5,7.7-7.6,7.7c-4.5,0-8.5-3.4-8.5-9.4C0.5,10.3,3.9,4.6,9.6,0.6z M27.7,0.6L33,4.9
		c-2.3,1-5.7,4.2-6.6,7c0.4-0.1,1.1-0.3,1.9-0.3c3.5,0,6.4,2.7,6.4,6.8c0,4.2-3.5,7.7-7.6,7.7c-4.5,0-8.5-3.4-8.5-9.4
		C18.5,10.3,22,4.6,27.7,0.6z"/>
</g>
</svg>
