<?xml version="1.0" encoding="utf-8"?>
<!-- Generator: Adobe Illustrator 19.1.0, SVG Export Plug-In . SVG Version: 6.00 Build 0)  -->
<svg version="1.1" id="Layer_1" xmlns="http://www.w3.org/2000/svg" xmlns:xlink="http://www.w3.org/1999/xlink" x="0px" y="0px"
	 viewBox="0 0 19.1 19.1" style="enable-background:new 0 0 19.1 19.1;" xml:space="preserve">
<g id="linkedin_10_">
	<rect x="0" style="fill:#5C9D9E;" width="19.1" height="19.1"/>
</g>
<path style="fill:#FFFFFF;" d="M10.1,6.7c0.3-0.3,0.9-0.4,1.3-0.1c0.1,0,0.1,0.1,0.2,0.2C12,7.1,12,7.9,11.4,8.2
	c-0.2,0.1-0.4,0.2-0.6,0.2c-0.2,0-0.4-0.1-0.6-0.2c-0.1,0-0.1-0.1-0.2-0.2C9.7,7.7,9.7,7.1,10.1,6.7z"/>
<path style="fill:#FFFFFF;" d="M7.6,6.7c0,0,0.1-0.1,0.1-0.1c0.4-0.3,1-0.3,1.4,0.1C9.6,7.1,9.5,7.8,9,8.2c0,0-0.1,0-0.1,0.1
	C8.8,8.3,8.6,8.4,8.4,8.4c-0.3,0-0.5-0.1-0.8-0.3C7.2,7.7,7.3,7.1,7.6,6.7z"/>
<path style="fill:#FFFFFF;" d="M13.7,8.3c-0.1,0.2-0.3,0.3-0.5,0.5C12.9,9,12.5,9.3,12,9.4c0,0,0,0-0.1,0c0,0,0,0.1,0,0.1
	c0.1,0.3,0.1,0.6,0.1,1c0,0.4,0,0.7-0.2,1c-0.2,0.4-0.4,0.7-0.8,0.8c-0.3,0.1-0.5,0.1-0.8,0.1c-0.4-0.1-0.6-0.4-0.6-0.8
	c0-0.1,0-0.1,0-0.2c0-0.5,0-1,0-1.5c0,0,0,0,0-0.1c-0.1,0-0.1,0-0.2-0.1c0,0,0,0.1,0,0.1c0,0.5,0,1.1,0,1.6c0,0.1,0,0.2,0,0.3
	c-0.1,0.3-0.3,0.5-0.6,0.5c-0.3,0.1-0.6,0-0.9-0.1c-0.4-0.2-0.6-0.5-0.8-0.9C7,11.1,7,10.8,7,10.5c0-0.3,0.1-0.6,0.2-0.9
	c0,0,0,0,0-0.1c0,0,0,0-0.1,0C6.6,9.3,6.2,9,5.8,8.7C5.6,8.6,5.5,8.4,5.4,8.3C5.3,8.2,5.3,8.2,5.3,8.1c0-0.1,0.1-0.2,0.2-0.2
	c0,0,0.1,0,0.1,0.1c0,0,0.1,0,0.1,0.1c0,0,0,0,0,0C6,8.2,6.2,8.3,6.5,8.5c0.4,0.2,0.8,0.3,1.3,0.3c0.3,0,0.6,0,0.9,0
	c0.1,0,0.2,0,0.3,0c0.1,0,0.3,0,0.4,0.1C9.4,9,9.5,9.1,9.6,9.2c0,0,0,0,0,0c0,0,0,0,0,0c0-0.2,0.1-0.3,0.4-0.4c0.1,0,0.2,0,0.4,0
	c0.3,0,0.7,0,1,0c0.4,0,0.8-0.2,1.2-0.3c0.3-0.1,0.6-0.3,0.8-0.4c0,0,0,0,0,0c0,0,0.1,0,0.1-0.1c0,0,0.1,0,0.1-0.1
	c0.1,0,0.2,0,0.2,0.2C13.8,8.1,13.8,8.2,13.7,8.3z"/>
</svg>
