<?xml version="1.0" encoding="utf-8"?>
<!-- Generator: Adobe Illustrator 19.1.0, SVG Export Plug-In . SVG Version: 6.00 Build 0)  -->
<svg version="1.1" id="Layer_1" xmlns="http://www.w3.org/2000/svg" xmlns:xlink="http://www.w3.org/1999/xlink" x="0px" y="0px"
	 viewBox="0 0 19.1 19.1" style="enable-background:new 0 0 19.1 19.1;" xml:space="preserve">
<g id="twitter_2_">
	<rect x="0" style="fill:#65BDDF;" width="19.1" height="19.1"/>
	<g>
		<g>
			<path style="fill:#FFFFFF;" d="M12.8,7.2c-0.3,0.1-0.5,0.2-0.8,0.2c0.3-0.2,0.5-0.5,0.6-0.8C12.3,6.8,12,6.9,11.7,7
				c-0.3-0.3-0.6-0.5-1-0.5C9.9,6.5,9.3,7.2,9.3,8c0,0.1,0,0.2,0,0.3C8.2,8.3,7.1,7.7,6.4,6.8C6.3,7,6.3,7.3,6.3,7.5
				c0,0.5,0.2,1,0.6,1.3c-0.2,0-0.4-0.1-0.6-0.2v0c0,0.7,0.5,1.3,1.1,1.5c-0.1,0-0.2,0-0.4,0c-0.1,0-0.2,0-0.3,0
				c0.2,0.6,0.7,1,1.3,1c-0.5,0.4-1.1,0.6-1.7,0.6c-0.1,0-0.2,0-0.3,0c0.6,0.4,1.4,0.7,2.1,0.7c2.6,0,4-2.3,4-4.3c0-0.1,0-0.1,0-0.2
				C12.4,7.8,12.6,7.5,12.8,7.2z"/>
		</g>
	</g>
</g>
</svg>
